<?xml version="1.0" encoding="iso-8859-1"?>
<!-- Uploaded to: SVG Repo, www.svgrepo.com, Generator: SVG Repo Mixer Tools -->
<svg height="800px" width="800px" version="1.1" id="Layer_1" xmlns="http://www.w3.org/2000/svg" xmlns:xlink="http://www.w3.org/1999/xlink" 
	 viewBox="0 0 512 512" xml:space="preserve">
<path style="fill:#F8E99B;" d="M512,290.909c0,89.972-114.615,116.364-256,116.364S0,380.881,0,290.909s114.615-186.182,256-186.182
	S512,200.937,512,290.909z"/>
<g>
	<path style="fill:#F6E27D;" d="M256,104.727c-5.868,0-11.685,0.182-17.455,0.505c133.242,7.486,238.545,99.439,238.545,185.677
		S371.788,404.968,238.545,407.13c5.769,0.093,11.586,0.143,17.455,0.143c141.385,0,256-26.391,256-116.364
		S397.385,104.727,256,104.727z"/>
	<path style="fill:#F6E27D;" d="M107.633,142.76c6.118,71.625,29.128,124.877,56.584,124.877c0.005,0,0.009,0,0.014,0
		c-0.006-1.937-0.014-3.873-0.014-5.818c0-52.23,2.276-101.533,6.312-145.08C147.94,123.222,126.803,132.084,107.633,142.76z"/>
	<path style="fill:#F6E27D;" d="M338.903,116.005c2.069,84.709,27.262,151.631,58.041,151.631c0.005,0,0.009,0,0.014,0
		c-0.006-1.937-0.014-3.873-0.014-5.818c0-42.732,1.524-83.5,4.288-120.765C382.166,130.744,361.233,122.205,338.903,116.005z"/>
	<path style="fill:#F6E27D;" d="M256,104.727c-11.387,0-22.599,0.633-33.593,1.827c0.35,89.129,26.259,161.082,58.174,161.082
		c0.005,0,0.009,0,0.014,0c-0.006-1.937-0.014-3.873-0.014-5.818c0-56.42,2.657-109.423,7.317-155.446
		C277.446,105.295,266.802,104.727,256,104.727z"/>
</g>
<g>
	<path style="fill:#EFC27B;" d="M146.541,124.719c-3.4,39.366-5.377,83.159-5.577,129.379c7.121,8.704,14.984,13.539,23.252,13.539
		c0.005,0,0.009,0,0.014,0c-0.006-1.937-0.014-3.873-0.014-5.818c0-52.23,2.276-101.533,6.312-145.08
		C162.331,119.091,154.332,121.766,146.541,124.719z"/>
	<path style="fill:#EFC27B;" d="M256,104.727c-3.896,0-7.763,0.1-11.615,0.246c6.817,0.257,13.571,0.712,20.24,1.4
		c-4.447,43.914-7.063,94.192-7.294,147.721c7.121,8.704,14.983,13.542,23.249,13.542c0.005,0,0.009,0,0.014,0
		c-0.006-1.937-0.014-3.873-0.014-5.818c0-56.42,2.657-109.423,7.317-155.446C277.446,105.295,266.802,104.727,256,104.727z"/>
	<path style="fill:#EFC27B;" d="M400.076,158.172c0.36-5.775,0.74-11.497,1.157-17.118c-4.743-2.565-9.601-5.019-14.568-7.355
		c-0.058-0.028-0.118-0.055-0.176-0.083c-7.338-3.447-14.913-6.632-22.7-9.533c-0.214-0.08-0.428-0.161-0.642-0.241
		c-5.062-1.873-10.216-3.624-15.45-5.247c-0.348-0.108-0.698-0.215-1.047-0.321c-2.565-0.785-5.143-1.546-7.746-2.269h-0.001
		c0.1,4.118,0.257,8.193,0.465,12.223c13.463,5.598,26.212,12.066,38.138,19.229c-2.314,33.242-3.656,69.129-3.818,106.637
		c7.123,8.708,14.986,13.544,23.255,13.544c0.005,0,0.009,0,0.014,0c-0.006-1.937-0.014-3.873-0.014-5.818
		C396.944,225.533,398.051,190.683,400.076,158.172z"/>
</g>
<g>
	<path style="fill:#F6E27D;" d="M64.582,228.655c0-8.021,6.525-14.545,14.545-14.545s14.545,6.525,14.545,14.545
		S87.148,243.2,79.127,243.2S64.582,236.675,64.582,228.655z"/>
	<path style="fill:#F6E27D;" d="M181.922,178.036c0-8.021,6.525-14.545,14.545-14.545s14.545,6.525,14.545,14.545
		s-6.525,14.545-14.545,14.545C188.447,192.582,181.922,186.057,181.922,178.036z"/>
	<path style="fill:#F6E27D;" d="M303.522,232.727c0-8.021,6.525-14.545,14.545-14.545c8.021,0,14.545,6.525,14.545,14.545
		s-6.525,14.545-14.545,14.545C310.047,247.273,303.522,240.748,303.522,232.727z"/>
	<path style="fill:#F6E27D;" d="M418.909,250.182c0-8.021,6.525-14.545,14.545-14.545c8.021,0,14.545,6.525,14.545,14.545
		s-6.525,14.545-14.545,14.545C425.434,264.727,418.909,258.203,418.909,250.182z"/>
</g>
</svg>